<svg width="41" height="35" viewBox="0 0 41 35" fill="none" xmlns="http://www.w3.org/2000/svg">
<path d="M37.6425 3.81381C35.6169 1.55944 32.5805 0.424919 28.5334 0.410259C26.4815 0.403387 24.6293 0.740788 22.9766 1.42246C21.3239 2.10413 19.6926 3.25056 18.0826 4.86174L18.0971 0.653517L0.807288 0.593733L0.691406 34.1503H1.46671C1.72607 27.772 8.47963 27.4847 11.2442 26.7921C14.0578 26.0891 17.6895 25.338 17.7109 18.9735C17.7267 14.39 16.2472 13.5194 13.8964 13.5111C11.5457 13.5029 8.98523 14.8168 8.98247 15.5823C8.98247 15.8365 9.08387 15.8881 9.1894 15.8888C9.34253 15.8888 9.5474 15.8386 9.75157 15.8393C12.3037 15.8482 14.1909 17.9936 14.1827 20.4378C14.1723 23.3397 11.7616 25.7758 8.95074 25.7661C6.19165 25.7565 3.59121 23.66 3.60294 20.299C3.61535 16.5313 7.46152 12.9291 15.7926 12.958C22.8462 12.982 27.6926 15.7486 27.6732 21.1965L27.6284 34.2437L31.1042 34.2554H31.7663L40.6182 34.2857L40.6913 13.1586C40.7024 9.1845 39.6861 6.06956 37.6425 3.81381Z" fill="white"/>
<path d="M17.3356 24.0117C17.2335 24.0117 16.5147 24.9257 15.4387 25.7365C14.5165 26.4464 12.1105 27.3548 12.0898 34.1777V34.1894L17.368 34.2079C17.4258 33.8163 17.4567 33.4212 17.4604 33.0253L17.4908 24.3182V24.2667C17.4887 24.1169 17.4887 24.0124 17.3356 24.0117Z" fill="white"/>
</svg>
